<?xml version="1.0" encoding="utf-8"?>
<!-- Generator: Adobe Illustrator 16.0.0, SVG Export Plug-In . SVG Version: 6.00 Build 0)  -->
<!DOCTYPE svg PUBLIC "-//W3C//DTD SVG 1.1//EN" "http://www.w3.org/Graphics/SVG/1.1/DTD/svg11.dtd">
<svg version="1.1" id="Layer_1" xmlns="http://www.w3.org/2000/svg" xmlns:xlink="http://www.w3.org/1999/xlink" x="0px" y="0px"
	 width="50px" height="50px" viewBox="0 0 50 50" enable-background="new 0 0 50 50" xml:space="preserve">
<g>
	<path d="M5.085,37.994c-0.602,0.35-0.94,0.99-0.94,1.642c0.012,0.313,0.087,0.639,0.263,0.928c0,0.013,0,0.013,0,0.013
		c0.351,0.589,0.978,0.928,1.617,0.928c0.326,0,0.652-0.088,0.953-0.251c0.602-0.352,0.94-0.99,0.94-1.642
		c-0.013-0.313-0.088-0.641-0.264-0.928C7.142,37.779,5.988,37.479,5.085,37.994z"/>
	<path d="M44.963,37.918c-0.903-0.514-2.043-0.213-2.57,0.689c-0.175,0.301-0.25,0.614-0.25,0.94c0,0.652,0.339,1.279,0.94,1.631
		c0.301,0.175,0.614,0.249,0.94,0.249c0.652,0,1.278-0.338,1.629-0.94c0.163-0.287,0.251-0.613,0.251-0.939
		C45.903,38.908,45.564,38.27,44.963,37.918z"/>
	<path d="M5.261,32.139c-0.189-1.015-1.167-1.692-2.182-1.517c-1.028,0.188-1.705,1.154-1.517,2.182
		c0.163,0.915,0.953,1.555,1.843,1.555c0.113,0,0.225-0.013,0.338-0.038C4.759,34.146,5.436,33.167,5.261,32.139z"/>
	<path d="M46.944,30.535c-1.028-0.177-2.006,0.514-2.182,1.528c-0.176,1.028,0.514,1.993,1.53,2.182
		c0.112,0.013,0.225,0.024,0.326,0.024c0.903,0,1.692-0.639,1.855-1.553C48.648,31.688,47.959,30.71,46.944,30.535z"/>
	<path d="M3.067,26.712c0.1,0.024,0.213,0.036,0.313,0.036c0.902,0,1.705-0.651,1.855-1.566c0.025-0.113,0.025-0.226,0.025-0.338
		c0-0.89-0.652-1.68-1.555-1.83c-1.027-0.176-2.006,0.501-2.181,1.529C1.512,24.655,1.5,24.768,1.5,24.881
		C1.512,25.771,2.152,26.56,3.067,26.712z"/>
	<path d="M44.725,24.768c0,0.113,0.013,0.225,0.038,0.338c0.15,0.902,0.953,1.554,1.843,1.554c0.112,0,0.225-0.013,0.338-0.037
		c0.902-0.15,1.542-0.94,1.554-1.843c0-0.113-0.012-0.213-0.038-0.326c-0.176-1.028-1.153-1.718-2.182-1.53
		C45.377,23.088,44.737,23.878,44.725,24.768z"/>
	<path d="M5.035,19.327c0.288,0.164,0.615,0.251,0.928,0.251c0.651,0,1.291-0.338,1.63-0.952v0.012
		c0.526-0.903,0.213-2.056-0.689-2.57C6,15.541,4.847,15.854,4.333,16.757S4.132,18.813,5.035,19.327z"/>
	<path d="M43.998,19.502c0.326,0,0.652-0.087,0.94-0.25c0.902-0.527,1.215-1.681,0.689-2.57c-0.514-0.902-1.667-1.204-2.569-0.689
		c-0.89,0.526-1.204,1.68-0.69,2.57C42.719,19.164,43.358,19.502,43.998,19.502z"/>
	<path d="M10.839,13.724c0.439,0,0.865-0.138,1.216-0.439c0.451-0.376,0.677-0.915,0.664-1.467c0-0.414-0.151-0.84-0.439-1.191
		c-0.676-0.79-1.855-0.89-2.645-0.213c-0.451,0.376-0.677,0.915-0.677,1.454c0.013,0.426,0.15,0.852,0.452,1.19
		C9.787,13.498,10.313,13.724,10.839,13.724z"/>
	<path d="M39.096,13.673c0.54,0,1.078-0.226,1.441-0.677c0.301-0.339,0.439-0.765,0.439-1.191c0.013-0.539-0.225-1.078-0.664-1.454
		c-0.802-0.665-1.981-0.564-2.646,0.238c-0.301,0.339-0.438,0.765-0.451,1.191c0,0.539,0.226,1.079,0.677,1.454
		C38.244,13.523,38.67,13.673,39.096,13.673z"/>
	<path d="M17.421,9.887c0.213,0,0.438-0.037,0.652-0.112c0.978-0.364,1.466-1.442,1.116-2.42c-0.364-0.965-1.441-1.466-2.419-1.103
		c-0.978,0.351-1.467,1.429-1.116,2.407C15.942,9.423,16.656,9.887,17.421,9.887z"/>
	<path d="M31.862,9.75c0.213,0.076,0.427,0.113,0.652,0.113c0.765,0,1.479-0.476,1.768-1.241c0.351-0.978-0.151-2.056-1.128-2.407
		c-0.978-0.351-2.056,0.15-2.419,1.128C30.383,8.308,30.885,9.398,31.862,9.75z"/>
	<path d="M24.917,8.546c0.013,0,0.025,0,0.038,0c0.012,0,0.038,0,0.05,0c1.04,0,1.88-0.84,1.88-1.88c0-1.041-0.84-1.88-1.88-1.88
		c-0.013,0-0.025,0-0.038,0c-0.025,0-0.037,0-0.062,0c-1.028,0-1.868,0.852-1.868,1.893C23.037,7.706,23.89,8.546,24.917,8.546z"/>
	<path d="M25.005,11.994c-9.159,0-16.61,7.451-16.61,16.611c0,9.158,7.451,16.61,16.61,16.61s16.61-7.452,16.61-16.61
		C41.616,19.445,34.165,11.994,25.005,11.994z M36.082,19.226l-3.102,5.761c-0.188,0.349-0.529,0.588-0.922,0.646
		c-0.061,0.009-0.121,0.014-0.182,0.014c-0.33,0-0.649-0.13-0.886-0.367l-2.66-2.66c-0.28-0.28-0.412-0.677-0.354-1.068
		c0.058-0.392,0.297-0.734,0.646-0.922l5.761-3.102c0.487-0.263,1.089-0.174,1.48,0.217C36.256,18.136,36.344,18.739,36.082,19.226z
		"/>
</g>
</svg>
