<?xml version="1.0" encoding="iso-8859-1"?>
<!-- Generator: Adobe Illustrator 18.0.0, SVG Export Plug-In . SVG Version: 6.00 Build 0)  -->
<!DOCTYPE svg PUBLIC "-//W3C//DTD SVG 1.1//EN" "http://www.w3.org/Graphics/SVG/1.1/DTD/svg11.dtd">
<svg version="1.1" id="Capa_1" xmlns="http://www.w3.org/2000/svg" xmlns:xlink="http://www.w3.org/1999/xlink" x="0px" y="0px"
	 viewBox="0 0 612 792" style="enable-background:new 0 0 612 792;" xml:space="preserve">
<g id="soundcloud">
	<g>
		<path d="M522.728,367.559c-0.716-0.069-1.404-0.151-2.064-0.22c-9.59-78.237-74.825-137.968-153.186-137.968
			c-27.904,0-71.123,13.636-91.13,25.827l-6.591,4.018v302.753l256.658,0.66c44.788,0,85.585-47.966,85.585-100.638
			C612,412.539,574.464,372.829,522.728,367.559z M526.443,535.11l-229.166-0.66V275.122c18.355-8.958,50.168-18.232,70.202-18.232
			c67.477,0,123.121,54.172,126.685,123.327l0.605,10.719l10.526,2.078c0,0,4.554,0.881,14.626,1.926
			c38.004,3.853,64.533,31.427,64.533,67.037C584.481,498.881,555.737,535.096,526.443,535.11z M233.913,257.179
			c-7.595,0-13.76,6.151-13.76,13.76v275.192c0,7.609,6.164,13.76,13.76,13.76s13.76-6.151,13.76-13.76V270.939
			C247.673,263.344,241.509,257.179,233.913,257.179z M178.875,284.699c-7.595,0-13.76,6.151-13.76,13.76v247.673
			c0,7.609,6.164,13.76,13.76,13.76s13.76-6.151,13.76-13.76V298.458C192.635,290.863,186.47,284.699,178.875,284.699z
			 M123.837,284.699c-7.595,0-13.76,6.151-13.76,13.76v247.673c0,7.609,6.164,13.76,13.76,13.76s13.76-6.151,13.76-13.76V298.458
			C137.596,290.863,131.432,284.699,123.837,284.699z M68.798,339.737c-7.595,0-13.76,6.151-13.76,13.76v192.635
			c0,7.609,6.164,13.76,13.76,13.76s13.76-6.151,13.76-13.76V353.497C82.558,345.901,76.393,339.737,68.798,339.737z M13.76,381.016
			c-7.595,0-13.76,6.151-13.76,13.76v123.836c0,7.609,6.164,13.76,13.76,13.76s13.76-6.151,13.76-13.76V394.775
			C27.519,387.18,21.355,381.016,13.76,381.016z"/>
	</g>
</g>
</svg>
